<svg width="300" height="300" viewBox="0 0 300 300" xmlns="http://www.w3.org/2000/svg">
  <defs>
    <linearGradient id="bg" x1="0%" y1="0%" x2="100%" y2="100%">
      <stop offset="0%" style="stop-color:#667eea;stop-opacity:1" />
      <stop offset="100%" style="stop-color:#764ba2;stop-opacity:1" />
    </linearGradient>
  </defs>
  <rect width="300" height="300" rx="30" fill="url(#bg)" />
  
  <!-- Happy Face -->
  <circle cx="150" cy="140" r="80" fill="#FFD93D" />
  <circle cx="120" cy="120" r="15" fill="#333" />
  <circle cx="180" cy="120" r="15" fill="#333" />
  <path d="M 110 170 Q 150 210 190 170" stroke="#333" stroke-width="10" fill="none" stroke-linecap="round" />
  
  <!-- Sad Face -->
  <circle cx="230" cy="220" r="50" fill="#87CEEB" />
  <circle cx="220" cy="210" r="8" fill="#333" />
  <circle cx="240" cy="210" r="8" fill="#333" />
  <path d="M 215 225 Q 230 205 245 225" stroke="#333" stroke-width="6" fill="none" stroke-linecap="round" />
  
  <!-- Angry Face -->
  <circle cx="70" cy="220" r="50" fill="#FF6B6B" />
  <path d="M 45 200 L 65 215" stroke="#333" stroke-width="5" fill="none" stroke-linecap="round" />
  <path d="M 95 200 L 75 215" stroke="#333" stroke-width="5" fill="none" stroke-linecap="round" />
  <circle cx="60" cy="225" r="8" fill="#333" />
  <circle cx="80" cy="225" r="8" fill="#333" />
  <path d="M 55 245 Q 70 255 85 245" stroke="#333" stroke-width="6" fill="none" stroke-linecap="round" />
  
  <!-- Title -->
  <text x="150" y="280" text-anchor="middle" font-family="Arial, sans-serif" font-size="24" font-weight="bold" fill="white">
    Emociones
  </text>
</svg>
